<svg width="94" height="94" viewBox="0 0 94 94" fill="none" xmlns="http://www.w3.org/2000/svg">
<path fill-rule="evenodd" clip-rule="evenodd" d="M42 67.763C31.7016 66.7705 24 62.7763 24 58V74C24 79.3959 33.8294 83.7936 46.1279 83.9929L37.9067 74.5H42V67.763ZM47.8721 83.9929L56.0933 74.5H52V67.763C62.2911 66.7712 69.9892 62.7819 70 58.0101V73.9899L70 74C70 79.3959 60.1706 83.7936 47.8721 83.9929Z" fill="#4F80E1"/>
<path fill-rule="evenodd" clip-rule="evenodd" d="M42 48.763C31.7016 47.7705 24 43.7763 24 39V55C24 59.7763 31.7016 63.7705 42 64.763V48.763ZM52 64.763V48.763C62.2911 47.7712 69.9892 43.7819 70 39.0101V54.9899L70 55C70 59.7763 62.2984 63.7705 52 64.763Z" fill="#CA4A36"/>
<path fill-rule="evenodd" clip-rule="evenodd" d="M47 10C34.2975 10 24 14.4772 24 20V36C24 40.7763 31.7016 44.7705 42 45.763V25.7363C35.0513 24.9827 30 22.6996 30 20C30 16.6863 37.6112 14 47 14C56.3888 14 64 16.6863 64 20C64 22.6996 58.9487 24.9827 52 25.7363V45.763C62.2984 44.7705 70 40.7763 70 36L70 35.9899V20.0101L70 20C70 14.4772 59.7025 10 47 10Z" fill="#DFB13C"/>
</svg>
